<svg xmlns="http://www.w3.org/2000/svg">
  <symbol id="xing" viewBox="0 0 402.14 472.23">
    <title>Xing</title>
    <path d="M158.67,105.92q-7.42-12.86-18.84-12.85H71.59q-6.57,0-9.14,4.28c-2.09,2.85-2,6.38.29,10.56l46,79.66c.19.19.19.29,0,.29L36.47,315.76c-1.9,3.63-1.9,7.05,0,10.29a9.56,9.56,0,0,0,8.86,4.85h68.23q10.85,0,18.56-13.13,70.51-125,73.37-130.19Z" transform="translate(-35.05)"/>
    <path d="M435.61,14.85q3.15-6,0-10.57Q433,0,426.76,0H358q-11.15,0-18.28,12.85Q193.22,272.67,188.08,281.79l96.78,177.59q6.86,12.86,18.85,12.85H372q6.27,0,9.13-4.28,2.85-4.86-.29-10.57L284.86,281.8v-.29Z" transform="translate(-35.05)"/>
  </symbol>
	<symbol id="equalizersimplelineicons" viewBox="0 0 14 14">
		<title>Equalizersimplelineicons</title>
		<path fill="#403E36" fill-rule="evenodd" d="M2.188 5.305c.382.1.697.305.943.615S3.5 6.59 3.5 7c0 .41-.123.77-.37 1.08-.245.31-.56.515-.942.615v4.867a.42.42 0 0 1-.13.308.42.42 0 0 1-.308.13.42.42 0 0 1-.308-.13.42.42 0 0 1-.13-.307V8.694a1.77 1.77 0 0 1-.936-.615C.126 7.77 0 7.41 0 7c0-.41.125-.77.376-1.08.25-.31.563-.515.937-.615V.438a.42.42 0 0 1 .13-.308A.42.42 0 0 1 1.75 0a.42.42 0 0 1 .308.13.42.42 0 0 1 .13.307v4.868zm-.438 2.57a.834.834 0 0 0 .622-.26A.852.852 0 0 0 2.625 7a.852.852 0 0 0-.253-.615.834.834 0 0 0-.622-.26.834.834 0 0 0-.622.26A.852.852 0 0 0 .875 7c0 .237.084.442.253.615.169.173.376.26.622.26zm5.688.055c.382.1.697.305.943.615s.369.67.369 1.08c0 .41-.123.77-.37 1.08-.245.31-.56.515-.943.615v2.242a.42.42 0 0 1-.13.308A.42.42 0 0 1 7 14a.42.42 0 0 1-.308-.13.42.42 0 0 1-.13-.307V11.32a1.77 1.77 0 0 1-.936-.615c-.25-.31-.376-.67-.376-1.08 0-.41.125-.77.376-1.08.25-.31.563-.515.936-.615V.438a.42.42 0 0 1 .13-.308A.42.42 0 0 1 7 0a.42.42 0 0 1 .308.13.42.42 0 0 1 .13.307V7.93zM7 10.5a.834.834 0 0 0 .622-.26.852.852 0 0 0 .253-.615.852.852 0 0 0-.253-.615A.834.834 0 0 0 7 8.75a.834.834 0 0 0-.622.26.852.852 0 0 0-.253.615c0 .237.084.442.253.615.169.173.376.26.622.26zm5.688-7.82c.382.1.697.305.943.615s.369.67.369 1.08c0 .41-.123.77-.37 1.08-.245.31-.56.515-.943.615v7.492a.42.42 0 0 1-.13.308.42.42 0 0 1-.307.13.42.42 0 0 1-.308-.13.42.42 0 0 1-.13-.307V6.07a1.77 1.77 0 0 1-.936-.615c-.25-.31-.376-.67-.376-1.08 0-.41.125-.77.376-1.08.25-.31.563-.515.937-.615V.437a.42.42 0 0 1 .13-.307.42.42 0 0 1 .307-.13.42.42 0 0 1 .308.13.42.42 0 0 1 .13.307V2.68zm-.438 2.57a.834.834 0 0 0 .622-.26.852.852 0 0 0 .253-.615.852.852 0 0 0-.253-.615.834.834 0 0 0-.622-.26.834.834 0 0 0-.622.26.852.852 0 0 0-.253.615c0 .237.084.442.253.615.169.173.376.26.622.26z"/>
	</symbol>
	<symbol id="magnifyingglass" viewBox="0 0 14 14">
		<title>Magnifyingglass</title>
		<path fill-rule="evenodd" d="M13.877 13.248a.418.418 0 0 1 .123.308c0 .123-.04.225-.123.307a.43.43 0 0 1-.313.137.43.43 0 0 1-.314-.137L9.024 9.598a5.52 5.52 0 0 1-1.635.984 5.29 5.29 0 0 1-1.936.355 5.296 5.296 0 0 1-2.127-.43 5.589 5.589 0 0 1-1.738-1.17A5.374 5.374 0 0 1 .423 7.603 5.413 5.413 0 0 1 0 5.469C0 4.712.14 4 .423 3.336A5.374 5.374 0 0 1 1.588 1.6 5.589 5.589 0 0 1 3.326.43 5.296 5.296 0 0 1 5.453 0c.745 0 1.45.144 2.113.43a5.466 5.466 0 0 1 2.91 2.905c.286.666.43 1.377.43 2.134 0 .665-.114 1.296-.341 1.893a5.68 5.68 0 0 1-.927 1.607l4.24 4.279zm-8.424-3.172c.627 0 1.22-.12 1.779-.362a4.575 4.575 0 0 0 1.458-.991c.414-.42.741-.907.982-1.463.24-.556.361-1.153.361-1.791 0-.638-.12-1.235-.361-1.791a4.752 4.752 0 0 0-.982-1.463c-.413-.42-.9-.75-1.458-.991A4.436 4.436 0 0 0 5.452.86a4.47 4.47 0 0 0-1.792.363 4.575 4.575 0 0 0-1.458.99c-.414.42-.741.908-.982 1.464a4.457 4.457 0 0 0-.361 1.79c0 .639.12 1.236.361 1.792.24.556.568 1.043.982 1.463.413.419.9.75 1.458.99a4.47 4.47 0 0 0 1.793.363z"/>
	</symbol>
	<symbol id="macaw" viewBox="0 0 90 15">
		<title>Macaw</title>
		<path fill="#cdcdc6" fill-rule="evenodd" d="M90 .07s-.763 5.018-.9 5.898c-1.078 6.88-2.312 8.935-7.244 9.03-2.035.04-3.263-.802-3.855-1.894-1.214 1.365-2.727 1.894-4.455 1.894-3.268 0-4.597-2.03-4.057-5.287l.933-5.975c.082-.474.008-.69-.505-.69H69L69.51.01 72.033 0c2.354 0 3.232 1.186 2.8 3.637l-.972 5.902c-.135.918-.182 1.866 1.006 1.866.945 0 1.66-.74 1.923-2.132l1.544-9.21L82.72.07l-1.635 9.55c-.193 1.258.063 1.82.903 1.81 1.93-.02 2.05-2.206 2.775-6.275l.82-5.085H90zM36.073 11.412c-.087.475-.004.634.645.634h.978L37.173 15h-2.82c-1.77 0-2.363-.754-2.45-1.87C31.06 14.47 29.3 15 27.643 15 24.13 15 23 12.724 23 9.933 23 4.27 26.174.026 32.594 0H38l-1.927 11.412zM31.82 9.238l1.044-6.013-1.32.018c-2.788 0-3.806 4.072-3.806 6.305 0 1.2.52 2.17 1.71 2.17 1.163 0 1.94-.677 2.373-2.48zM19.962 12.064c-.507 0-.488-.278-.407-.696l.987-6.58c.535-3.21-.472-4.786-3.037-4.786-1.843 0-3.128.81-4.09 2.29C13.068.587 11.68 0 10.317 0c-1.51 0-3.035.694-4.026 2.205C6.38 1.79 6.206.002 3.604.002L.913 0l-.5 3.04.88.005c.515 0 .605.24.524.713l-.032.19L0 14.958h4.37l1.433-8.572c.294-1.564.853-2.7 2.055-2.7 1.07 0 1.176.81.962 2.04l-1.5 9.214h4.373l1.385-8.58c.293-1.814 1.032-2.7 2.02-2.7 1.203 0 1.096 1.004.962 2.037l-.912 5.944c-.35 2.313.454 3.374 2.617 3.36h2.75L21 12.063h-1.038zM43.996 8.74c0 1.59.665 2.585 2.262 2.628 1.228.032 2.63-.106 3.952-.57l-.624 3.73c-1.71.382-2.978.472-4.632.472C41.207 15 39 13.06 39 9.353c0-6.607 4.53-9.346 9.62-9.35L52 0l-.647 3.753-2.6-.006c-3.524-.024-4.757 1.954-4.757 4.992M65.058 11.412c-.087.475-.003.634.644.634h.977L66.156 15l-2.714-.004c-1.77 0-2.463-.75-2.55-1.866-.842 1.34-2.6 1.87-4.253 1.87C53.13 15 52 12.724 52 9.933 52 4.27 55.17.026 61.583 0H67l-1.942 11.412zM60.81 9.238l1.043-6.013-1.317.018c-2.786 0-3.804 4.072-3.804 6.305 0 1.2.52 2.17 1.71 2.17 1.16 0 1.937-.677 2.37-2.48z"/>
	</symbol>
	<symbol id="macawfav" viewBox="0 0 141.7 141.7">
		<title>Macaw</title>
		 <path fill="#cdcdc6" d="M81 22.6c-30.3 0-56.9 18.9-56.9 55.7 0 19.6 11.2 40.8 37.5 40.8 8.8 0 13-.8 16.3-1.8l1-8.2c-5.5 1.8-9.2 2.1-15.9 2.1-21 0-30.2-13.9-30.2-33.7 0-27.1 18.9-47.6 48.9-47.6 20.9 0 28.9 11.1 28.9 26.7 0 23.2-10.7 24.9-15.7 25h-1.5c-1.1 0-1.1-.6-.9-1.5L94.7 66c1.2-6.9-1.1-10.3-6.8-10.3-4.1 0-7 1.7-9.2 4.9-.8-3.7-3.9-4.9-7-4.9-3.4 0-6.8 1.5-9 4.7.2-.9-.2-4.7-6-4.7h-6l-1.1 6.5h2c1.2 0 1.4.5 1.2 1.5l-.1.4-4 23.6h9.8l3.2-18.4c.7-3.4 1.9-5.8 4.6-5.8 2.4 0 2.6 1.7 2.2 4.4l-3.4 19.8h9.8L78 69.3c.7-3.9 2.3-5.8 4.5-5.8 2.7 0 2.5 2.2 2.2 4.4l-2 12.8c-.8 5 1 7.2 5.9 7.2h5.3c10.6 0 23.9-6.5 23.9-31.3-.1-21.4-13.2-34-36.8-34"/>
	</symbol>
	<symbol id="instagram" viewBox="0 0 16 16">
		<title>Instagram</title>
		<path fill="#cdcdc6" d="M4.522 0C2.03 0 0 2.03 0 4.522v6.956C0 13.97 2.03 16 4.522 16h6.956C13.97 16 16 13.97 16 11.478V4.522C16 2.03 13.97 0 11.478 0H4.522zm8 2.783c.384 0 .695.31.695.695 0 .385-.31.696-.695.696-.385 0-.696-.31-.696-.696 0-.384.31-.695.696-.695zM8 3.826c2.302 0 4.174 1.872 4.174 4.174 0 2.302-1.872 4.174-4.174 4.174-2.302 0-4.174-1.872-4.174-4.174 0-2.302 1.872-4.174 4.174-4.174zm0 .696c-1.918 0-3.478 1.56-3.478 3.478 0 1.918 1.56 3.478 3.478 3.478 1.918 0 3.478-1.56 3.478-3.478 0-1.918-1.56-3.478-3.478-3.478z" fill-rule="nonzero"/>
	</symbol>
	<symbol id="linkedin" viewBox="0 0 16 16">
		<title>LinkedIn</title>
		<path fill="#cdcdc6" class="st0" d="M13.8,0H2.2C1,0,0,1,0,2.2v11.6C0,15,1,16,2.2,16h11.6c1.2,0,2.2-1,2.2-2.2V2.2C16,1,15,0,13.8,0z M3.8,2.7c0.7,0,1.1,0.5,1.1,1.1c0,0.6-0.4,1.1-1.1,1.1l0,0h0c-0.7,0-1.1-0.5-1.1-1.1C2.7,3.1,3.1,2.7,3.8,2.7z M4.9,13.3H2.7l0-7.6h2.2V13.3z M13.3,13.3h-2.2v-4c0-1-0.5-1.6-1.4-1.6c-0.7,0-1,0.5-1.2,0.9c-0.1,0.2,0,0.6,0,0.8v4H6.2V5.8h2.2v1.2c0.3-0.5,0.8-1.2,2.1-1.2c1.6,0,2.8,1,2.8,3.2V13.3z"/>
	</symbol>
	<symbol id="facebook" viewBox="0 0 16 16">
		<title>FaceBook</title>
		<path fill="#cdcdc6" d="M13.8,0H2.2C1,0,0,1,0,2.2v11.6C0,15,1,16,2.2,16h11.6c1.2,0,2.2-1,2.2-2.2V2.2C16,1,15,0,13.8,0z M12.9,4.9h-1c-0.7,0-0.8,0.3-0.8,0.8v1h1.8l-0.3,1.8h0l0,0l0,0h-1.5v5.8H8.9V8.4H7.6V6.7h1.3V5.6c0-1.6,0.6-2.5,2.5-2.5h1.5V4.9z"/>
	</symbol>
	<symbol id="twitter" viewBox="0 0 21 16">
		<title>Twitter</title>
		<path fill="#cdcdc6" fill-rule="nonzero" d="M20.414 1.892c-.73.323-1.515.54-2.343.64.843-.5 1.49-1.296 1.794-2.238-.788.462-1.66.8-2.59.98C16.535.488 15.477 0 14.305 0c-2.25 0-4.076 1.81-4.076 4.04 0 .314.037.622.107.92-3.387-.17-6.39-1.78-8.4-4.223-.353.597-.55 1.296-.55 2.034 0 1.403.717 2.637 1.81 3.364-.667-.02-1.296-.206-1.847-.504v.047c0 1.96 1.406 3.59 3.268 3.962-.34.092-.7.144-1.07.144-.264 0-.52-.03-.77-.074.52 1.6 2.025 2.77 3.807 2.806-1.395 1.08-3.15 1.73-5.06 1.73-.33 0-.654-.02-.973-.058C2.355 15.33 4.498 16 6.798 16c7.495 0 11.595-6.155 11.595-11.495 0-.175-.005-.35-.013-.52.8-.566 1.49-1.28 2.034-2.093"/>
	</symbol>
	<symbol id="arrow" viewBox="0 0 23 16">
		<title>arrow</title>
		<path d="M13.913.473c-.07.246.003.508.186.68l6.05 6.157H.69c-.424.02-.707.335-.69.704.02.37.328.657.69.64h19.464L14.1 14.807c-.197.162-.287.42-.23.672.056.25.25.442.494.5.247.06.502-.034.662-.233l7.188-7.29.453-.48-.453-.482L15.026.21c-.137-.148-.335-.224-.536-.208-.31.045-.507.228-.577.47z"/>
	</symbol>
	<symbol id="envelope" viewBox="0 0 20 14">
		<title>envelope</title>
		<path d="M0 0v.024L10 6.1 20 .025V0H0zm0 1.847V14h20V1.847L10 7.9 0 1.846z"/>
	</symbol>
	<symbol id="share" viewBox="0 0 18 20">
		<title>share</title>
		<path d="M15 0c-1.656 0-3 1.344-3 3 0 .195.027.375.063.563L4.936 7.718C4.416 7.272 3.742 7 3 7c-1.656 0-3 1.344-3 3s1.344 3 3 3c.742 0 1.414-.273 1.938-.72l7.125 4.158c-.036.187-.063.367-.063.562 0 1.656 1.344 3 3 3s3-1.344 3-3-1.344-3-3-3c-.742 0-1.414.273-1.938.72L5.94 10.56c.033-.184.06-.365.06-.56 0-.195-.027-.375-.063-.563l7.125-4.156c.524.45 1.196.72 1.938.72 1.656 0 3-1.343 3-3s-1.344-3-3-3z"/>
	</symbol>
	<symbol id="download" viewBox="0 0 61 43">
		<title>download</title>
		<path d="M24.4.686c-7.882 0-14.192 6.552-14.526 14.746C4.17 17.07 0 22.48 0 28.895 0 36.65 6.043 43 13.42 43h36.6C56.053 43 61 37.8 61 31.46c0-5-3.17-9.24-7.434-10.74-.258-7.517-6.096-13.623-13.306-13.623-1.268 0-2.45.33-3.622.68-2.62-4.19-7.09-7.09-12.238-7.09zm0 2.565c4.546 0 8.53 2.687 10.637 6.534l.534.922.956-.36c1.22-.467 2.406-.682 3.736-.682 6.044 0 10.98 5.19 10.98 11.54v1.402l.954.24c3.58.887 6.367 4.474 6.367 8.616 0 4.944-3.835 8.977-8.54 8.977h-36.6c-6.042 0-10.98-5.19-10.98-11.54 0-5.55 3.73-10.265 8.77-11.3l.99-.2v-1.324c0-7.137 5.41-12.822 12.2-12.822zm4.88 12.825V30.9l-5.223-5.49-1.754 1.843 7.32 7.693.877.88.877-.88 7.32-7.693-1.754-1.844-5.223 5.49V16.07h-2.44z"/>
	</symbol>
	<symbol id="hamburger" viewBox="0 0 24 11">
		<title>menu</title>
		<g fill-rule="evenodd">
			<rect y="10" width="24" height="1" rx=".5"/>
			<rect y="5" width="24" height="1" rx=".5"/>
			<rect width="24" height="1" rx=".5"/>
		</g>
	</symbol>
	<symbol id="close" viewBox="0 0 24 24">
		<title>close</title>
		<path d="M.922 0L0 .922 11.078 12 0 23.078.922 24 12 12.922 23.078 24l.922-.922L12.922 12 24 .922 23.078 0 12 11.078"/>
	</symbol>
	<symbol id="play" viewBox="0 0 65 65">
		<title>play</title>
		<rect fill="#403e36" width="65" height="65"/>
		<path d="M22.9 16.1l27.3 16.3-27.3 16.3z"/>
	</symbol>
</svg>