<svg xmlns="http://www.w3.org/2000/svg" xmlns:xlink="http://www.w3.org/1999/xlink" width="32" height="32">
    <path d="m6.46095,13.83619c2.56,5.05905 6.70476,9.14286 11.70286,11.70286l3.90095,-3.90095c0.48762,-0.48762 1.21905,-0.60952 1.82857,-0.42667c2.01143,0.67048 4.14476,1.03619 6.33905,1.03619c0.97524,0 1.76762,0.79238 1.76762,1.76762l0,6.21714c0,0.97524 -0.79238,1.76762 -1.76762,1.76762c-16.70095,0 -30.23238,-13.53143 -30.23238,-30.23238c0,-0.97524 0.79238,-1.76762 1.76762,-1.76762l6.21714,0c0.97524,0 1.76762,0.79238 1.76762,1.76762c0,2.19429 0.36571,4.32762 1.03619,6.33905c0.18286,0.60952 0.06095,1.34095 -0.42667,1.82857l-3.90095,3.90095z" fill="currentColor" />
</svg>
