<svg xmlns="http://www.w3.org/2000/svg" xmlns:xlink="http://www.w3.org/1999/xlink" width="32" height="32">
    <path d="m12.95836,15.84213c1.63686,1.6659 3.11823,3.12812 4.55159,4.63966c1.80401,1.9054 3.58199,3.83843 5.342,5.78721c0.8731,0.9674 1.12312,2.13699 0.65155,3.39689c-0.46546,1.23809 -1.33862,1.98473 -2.62446,2.09889c-0.86053,0.07542 -1.62917,-0.20801 -2.23832,-0.86174c-3.9289,-4.21822 -7.8558,-8.4384 -11.77268,-12.67242c-1.10783,-1.19943 -1.37723,-3.57475 0.13293,-5.09552c3.92444,-3.95479 7.72472,-8.0455 11.5861,-12.07025c1.74063,-1.81509 4.40786,-1.22444 5.13625,1.1243c0.43703,1.40924 0.0158,2.57017 -0.95856,3.58822c-2.87303,2.99489 -5.72438,6.01375 -8.58946,9.00869c-0.30612,0.3216 -0.66545,0.58126 -1.21893,1.05606" fill="currentColor"/>
</svg>
