<svg xmlns="http://www.w3.org/2000/svg" xmlns:xlink="http://www.w3.org/1999/xlink" width="32" height="32">
    <path d="m17.81898,15.82945c-1.65652,-1.64635 -3.15514,-3.09088 -4.60634,-4.58531c-1.8265,-1.88386 -3.6273,-3.79564 -5.41031,-5.7234c-0.88452,-0.95696 -1.14841,-2.12351 -0.69182,-3.38891c0.45073,-1.24353 1.31497,-2.00048 2.59936,-2.12989c0.85957,-0.08563 1.63152,0.18866 2.24839,0.83511c3.97869,4.17129 7.95541,8.34456 11.92227,12.53179c1.12198,1.1862 1.41957,3.55815 -0.07244,5.09673c-3.87722,4.0011 -7.62868,8.13663 -11.44202,12.20692c-1.71896,1.83562 -4.39302,1.27667 -5.14923,-1.06326c-0.45373,-1.40395 -0.04631,-2.5698 0.9159,-3.59934c2.83728,-3.02878 5.65259,-6.08128 8.48193,-9.11001c0.30229,-0.32521 0.6585,-0.58912 1.20631,-1.07045" fill="currentColor"/>
</svg>
