<svg xmlns="http://www.w3.org/2000/svg" xmlns:xlink="http://www.w3.org/1999/xlink" width="32" height="32">
    <path fill="currentColor" d="m15.89708,18.86778c1.65442,-1.64846 3.10625,-3.14001 4.60774,-4.5839c1.89275,-1.81728 3.8133,-3.60873 5.74974,-5.38231c0.96127,-0.87984 2.12909,-1.13803 3.39225,-0.67527c1.24131,0.4568 1.99404,1.32472 2.11718,2.60973c0.08143,0.85998 -0.19662,1.63058 -0.84608,2.24429c-4.19066,3.95828 -8.3833,7.91458 -12.58984,11.86095c-1.19166,1.11618 -3.56504,1.40218 -5.09632,-0.09732c-3.98212,-3.89671 -8.09929,-7.66831 -12.15092,-11.50147c-1.82721,-1.7279 -1.25521,-4.3992 1.08838,-5.14398c1.40615,-0.44687 2.57,-0.03376 3.59483,0.93346c3.01489,2.85203 6.05361,5.68221 9.0685,8.5263c0.32373,0.30387 0.5859,0.66137 1.06455,1.21152" />
</svg>
