<svg xmlns="http://www.w3.org/2000/svg" xmlns:xlink="http://www.w3.org/1999/xlink" width="32" height="32">
    <path fill="currentColor" d="m15.99525,4.88326c-0.98793,1.03068 -1.85712,1.96399 -2.75481,2.86643c-1.1328,1.13517 -2.27984,2.2561 -3.43639,3.36514c-0.57709,0.54859 -1.27291,0.71245 -2.02811,0.42035c-0.74332,-0.28498 -1.19454,-0.82882 -1.26579,-1.63151a1.68613,1.68613 0 0 1 0.50347,-1.40115c2.50783,-2.47933 5.01328,-4.95154 7.52823,-7.41899c0.71245,-0.6982 2.13023,-0.87869 3.04692,0.05937c2.38196,2.43896 4.84229,4.79955 7.26463,7.19576c1.09243,1.08055 0.75045,2.75006 -0.65071,3.21553c-0.84069,0.28023 -1.53652,0.02137 -2.14923,-0.58421c-1.80488,-1.78113 -3.61688,-3.55038 -5.42175,-5.32913c-0.19236,-0.18999 -0.35148,-0.41322 -0.63646,-0.7552m0.0095,22.10736c0.98793,-1.03068 1.85712,-1.96399 2.75481,-2.86643c1.1328,-1.13517 2.27984,-2.2561 3.43639,-3.36514c0.57709,-0.54859 1.27291,-0.71245 2.02811,-0.42035c0.74332,0.28498 1.19454,0.82882 1.26579,1.63151a1.68613,1.68613 0 0 1 -0.50347,1.40115c-2.50783,2.47696 -5.01328,4.94916 -7.52823,7.41662c-0.71245,0.6982 -2.13023,0.87869 -3.04692,-0.05937c-2.38196,-2.43658 -4.84229,-4.79717 -7.26463,-7.19101c-1.09243,-1.08055 -0.75045,-2.75006 0.65071,-3.21553c0.84069,-0.28023 1.53652,-0.02137 2.14923,0.58421c1.80488,1.78113 3.61688,3.55038 5.42175,5.32913c0.19236,0.18999 0.35148,0.41322 0.63646,0.7552" />
</svg>
