<svg width="32" height="32" xmlns="http://www.w3.org/2000/svg" xmlns:svg="http://www.w3.org/2000/svg">
    <path d="m17.57771,17.57771l0,-9.61594l-3.15518,0l0,9.61594l3.15518,0zm0,6.46076l0,-3.23198l-3.15518,0l0,3.23198l3.15518,0zm-1.57759,-24.03824c2.92318,0 5.62876,0.7312 8.11515,2.19199a15.1647,15.1647 0 0 1 5.69276,5.69276a15.7359,15.7359 0 0 1 2.19199,8.11515a15.7359,15.7359 0 0 1 -2.19199,8.11515a15.1647,15.1647 0 0 1 -5.69276,5.69276a15.7359,15.7359 0 0 1 -8.11515,2.19199a15.7359,15.7359 0 0 1 -8.11515,-2.19199a15.4511,15.4511 0 0 1 -5.69276,-5.73116a15.6639,15.6639 0 0 1 -2.19199,-8.07675a15.6639,15.6639 0 0 1 2.19199,-8.07675a15.7471,15.7471 0 0 1 5.73116,-5.73116a15.6639,15.6639 0 0 1 8.07675,-2.19199z" fill="currentColor"/>
</svg>
