<svg width="32" height="32" xmlns="http://www.w3.org/2000/svg" xmlns:svg="http://www.w3.org/2000/svg">
  <path d="m27.05685,27.05708l-4.70638,0l0,-7.36887c0,-1.75808 -0.03219,-4.01831 -2.44719,-4.01831c-2.45076,0 -2.82603,1.9145 -2.82603,3.89099l0,7.49619l-4.70608,0l0,-15.15302l4.5177,0l0,2.07031l0.06262,0c0.62834,-1.1913 2.16469,-2.44748 4.45594,-2.44748c4.76896,0 5.64943,3.13853 5.64943,7.21831l0,8.31187l0,0zm-19.99322,-17.22452c-1.50949,0 -2.73129,-1.22396 -2.73129,-2.73131c0,-1.50603 1.2218,-2.72981 2.73129,-2.72981c1.50552,0 2.72904,1.22378 2.72904,2.72981c0,1.50735 -1.22352,2.73131 -2.72904,2.73131zm2.35377,17.22452l-4.70978,0l0,-15.15302l4.70978,0l0,15.15302zm19.98493,-27.05708l-27.05864,0c-1.29303,0 -2.34369,1.02489 -2.34369,2.28859l0,27.1724c0,1.26478 1.05065,2.29123 2.34369,2.29123l27.05864,0c1.29523,0 2.35033,-1.02645 2.35033,-2.29123l0,-27.1724c0,-1.26369 -1.0551,-2.28859 -2.35033,-2.28859" fill="currentColor"/>
</svg>
