<svg xmlns="http://www.w3.org/2000/svg" width="32" height="32">
    <path d="m32,6.076001c-1.177333,0.522667 -2.442667,0.874667 -3.770666,1.033333c1.356,-0.812 2.397333,-2.098667 2.886666,-3.632c-1.268,0.752 -2.673333,1.298667 -4.169333,1.593333c-1.196,-1.276 -2.904,-2.073333 -4.792,-2.073333c-4.238666,0 -7.353333,3.954666 -6.396,8.06c-5.454666,-0.273333 -10.291999,-2.886666 -13.530666,-6.858666c-1.72,2.950666 -0.892,6.810666 2.030667,8.765333c-1.074667,-0.034667 -2.088,-0.329333 -2.972,-0.821333c-0.072,3.041333 2.108,5.886666 5.265333,6.52c-0.924,0.250667 -1.936,0.309333 -2.965333,0.112c0.834667,2.608 3.258666,4.505333 6.133333,4.558666c-2.76,2.164 -6.237333,3.130666 -9.719999,2.72c2.905333,1.862667 6.357333,2.949333 10.063999,2.949333c12.189333,0 19.075999,-10.294666 18.659999,-19.527999c1.282667,-0.926667 2.396,-2.082667 3.276,-3.398666z"/>
</svg>
