<svg xmlns="http://www.w3.org/2000/svg" xmlns:xlink="http://www.w3.org/1999/xlink" width="32" height="32">
    <path d="m20.96921,12.61756c1.38654,-1.38654 2.42645,-3.25838 2.42645,-5.40753c0,-3.95165 -3.25838,-7.21003 -7.27936,-7.21003s-7.21003,3.25838 -7.21003,7.27936c0,2.07982 0.90125,4.15963 2.42645,5.40753c-3.95165,0.27731 -6.93272,3.46636 -6.93272,7.27936l0,7.90331c0,1.03991 0.27731,2.07982 1.03991,2.77309c0.69327,0.83193 1.73318,1.24789 2.77309,1.24789l15.66796,0c2.21847,0 3.95165,-1.73318 3.95165,-3.95165l0,-7.83398c0,-2.07982 -0.69327,-3.88233 -2.07982,-5.26887s-2.91174,-2.07982 -4.64493,-2.21847l-0.13865,0z" fill="currentColor" />
</svg>
