<svg xmlns="http://www.w3.org/2000/svg" xmlns:xlink="http://www.w3.org/1999/xlink" viewBox="0 0 32 32" width="32" height="32" >
	<path d="M6.4,3h19.3C27.5,3,29,4.4,29,6.2v19.5c0,1.8-1.5,3.3-3.4,3.3H6.4C4.5,29,3,27.6,3,25.7c0,0,0,0,0,0V6.2     C3,4.4,4.6,3,6.4,3z M9.1,23.1h3.1v-9.8H9.1V23.1z M9,10.5c0,0.8,0.6,1.5,1.5,1.5c0,0,0.1,0,0.1,0c0.8,0.1,1.6-0.6,1.6-1.4     c0,0,0-0.1,0-0.1c0-0.8-0.6-1.5-1.5-1.5c0,0-0.1,0-0.1,0C9.8,8.9,9.1,9.6,9,10.4C9,10.4,9,10.5,9,10.5z M20.2,23.1h3.1v-5.8     c0-2.9-1.5-4.2-3.5-4.2c-1.2,0-2.3,0.6-3,1.6h-0.1l-0.1-1.4h-2.7c0,0.9,0.1,1.9,0.1,3.1v6.7h3v-5.7c0-0.3,0-0.5,0.1-0.8     c0.2-0.7,0.8-1.1,1.6-1.1c1.1,0,1.5,0.9,1.5,2.1L20.2,23.1z" />
</svg>
