<svg xmlns="http://www.w3.org/2000/svg" xmlns:xlink="http://www.w3.org/1999/xlink" viewBox="0 0 32 32" width="32" height="32" >
	<path d="M26.3,3H5.7C4.2,3,3,4.2,3,5.7v20.7C3,27.8,4.2,29,5.7,29h20.7c1.5,0,2.7-1.2,2.7-2.7V5.7C29,4.2,27.8,3,26.3,3  z M22.3,13.2c0,0.1,0,0.3,0,0.4c0,1.8-0.5,3.5-1.5,5C18.1,23,12.3,24.3,8,21.5c0.3,0,0.5,0,0.8,0c1.5,0,2.9-0.5,4.1-1.4  c-1.4,0-2.6-0.9-3.1-2.3c0.5,0.1,1,0.1,1.5-0.1c-1.5-0.3-2.6-1.7-2.6-3.2c0.5,0.3,1,0.4,1.5,0.4c-1.4-1-1.9-2.9-1-4.4  c1.7,2.1,4.1,3.3,6.8,3.4c-0.1-0.2-0.1-0.5-0.1-0.8c0-0.9,0.4-1.8,1-2.4c1.3-1.2,3.4-1.2,4.6,0.2c0.7-0.1,1.4-0.4,2.1-0.8  c-0.2,0.8-0.8,1.4-1.5,1.8c0.7-0.1,1.3-0.3,1.9-0.5C23.6,12.2,23,12.8,22.3,13.2z" />
</svg>
